@startuml

package "Classic Collections" #DDDDDD {
  Object <|-- ArrayList
}

package net.sourceforge.plantuml {
  Object <|-- Demo1
  Demo1 *- Demo2
}

scale 750 width
package foo1 <<Node>> {
  class Class1
}

package foo2 <<Rect>> {
  class Class2
}

package foo3 <<Folder>> {
  class Class3
}

package foo4 <<Frame>> {
  class Class4
}

package foo5 <<Cloud>> {
  class Class5
}

package foo6 <<Database>> {
  class Class6
}

skinparam packageStyle rect

package foo1.foo2 {
}

package foo1.foo2.foo3 {
  class Object
}

foo1.foo2 +-- foo1.foo2.foo3
@enduml